<?xml version="1.0" standalone="no"?>
<!DOCTYPE svg PUBLIC "-//W3C//DTD SVG 20010904//EN"
 "http://www.w3.org/TR/2001/REC-SVG-20010904/DTD/svg10.dtd">
<svg version="1.0" xmlns="http://www.w3.org/2000/svg"
 width="250.000000pt" height="250.000000pt" viewBox="0 0 250.000000 250.000000"
 preserveAspectRatio="xMidYMid meet">
<metadata>
Created by potrace 1.14, written by Peter Selinger 2001-2017
</metadata>
<g transform="translate(0.000000,250.000000) scale(0.100000,-0.100000)"
fill="#000000" stroke="none">
<path d="M347 1909 c-47 -27 -47 -30 -47 -665 l0 -596 34 -34 34 -34 882 0
882 0 34 34 34 34 0 596 c0 639 0 639 -49 666 -27 14 -1779 13 -1804 -1z
m1693 -659 l0 -520 -790 0 -790 0 0 520 0 520 790 0 790 0 0 -520z"/>
<path d="M770 1545 l0 -85 115 0 115 0 0 -290 0 -290 103 0 102 0 -3 290 -3
289 118 3 118 3 3 83 3 82 -336 0 -335 0 0 -85z"/>
<path d="M1310 950 l0 -70 210 0 210 0 0 70 0 70 -210 0 -210 0 0 -70z"/>
</g>
</svg>
